<?xml version="1.0" encoding="UTF-8"?>
<!-- Generator: Adobe Illustrator 18.0.0, SVG Export Plug-In . SVG Version: 6.00 Build 0)  -->
<!DOCTYPE svg PUBLIC "-//W3C//DTD SVG 1.1//EN" "http://www.w3.org/Graphics/SVG/1.1/DTD/svg11.dtd">
<svg version="1.1" id="Layer_1" xmlns="http://www.w3.org/2000/svg" xmlns:xlink="http://www.w3.org/1999/xlink" x="0px" y="0px" viewBox="0 0 650 1000" enable-background="new 0 0 650 1000" xml:space="preserve">
<g id="g860">
	<path id="path862" fill="#906E5C" d="M291.4,93.9c0,0-15.5,460-40,492.6h47.4L315.1,463l16.3,123.5h44.1c0,0-58.8-444.3-39.2-492.6   L351,83.8l-1.6-16.5l-18-1l3.3-5.8l6.5-1.6c0,0-6.5-57.4-27.8-49.6c-21.2,7.8-22.9,34.2-22,42.5l0.8,8.2l-9.2,3.6V80L291.4,93.9   L291.4,93.9z"/>
	<path id="path864" fill="#906E5C" d="M244.8,615.1l-55.1,150.8h66.6l31.6-113.1h54.9l44.1,113.1h58.8l-57.2-150.8   c0,0-102.9-1.3-109.4,0C272.6,616.4,244.8,615.1,244.8,615.1L244.8,615.1z"/>
	<path id="path866" fill="#906E5C" d="M159.9,816.6c0,0-94.7,143-102.9,144.3c-8.2,1.3-29.4,9.1-29.4,9.1s1.6,19.5,0,18.2   c-1.6-1.3,114.3,0.1,114.3,0.1s3.3-101.5,114.3-124.9c111.1-23.4,223.7,26,253.1,94.9v30h116l-8.2-26.1l-21.2-3.9L489.8,816.6   L159.9,816.6L159.9,816.6z"/>
	<rect id="rect868" x="244.8" y="585.7" fill="#DDBB9E" width="138.9" height="13.2"/>
	<rect id="rect870" x="233.4" y="600.8" fill="#DDBB9E" width="161.7" height="14.3"/>
	<rect id="rect872" x="138.7" y="790.6" fill="#DDBB9E" width="365.8" height="26"/>
	<rect id="rect874" x="161.9" y="766.3" fill="#DDBB9E" width="319.4" height="22.7"/>
</g>
</svg>
